<svg xmlns="http://www.w3.org/2000/svg" xmlns:xlink="http://www.w3.org/1999/xlink" width="103" height="103" viewBox="0 0 103 103">
  <defs>
    <clipPath id="clip-path">
      <rect id="Rectangle_213" data-name="Rectangle 213" width="47.083" height="65.757" fill="#8d60d8"/>
    </clipPath>
  </defs>
  <g id="Group_980" data-name="Group 980" transform="translate(-393 -2844)">
    <g id="Path_4128" data-name="Path 4128" transform="translate(393 2844)" fill="none">
      <path d="M51.5,0A51.5,51.5,0,1,1,0,51.5,51.5,51.5,0,0,1,51.5,0Z" stroke="none"/>
      <path d="M 51.5 3 C 44.95121383666992 3 38.59992218017578 4.28192138671875 32.62253570556641 6.810134887695312 C 26.84754180908203 9.252754211425781 21.66044616699219 12.75019836425781 17.205322265625 17.205322265625 C 12.75019836425781 21.66044616699219 9.252754211425781 26.84754180908203 6.810134887695312 32.62253570556641 C 4.28192138671875 38.59992218017578 3 44.95121383666992 3 51.5 C 3 58.04878616333008 4.28192138671875 64.40007781982422 6.810134887695312 70.37745666503906 C 9.252754211425781 76.1524658203125 12.75019836425781 81.33955383300781 17.205322265625 85.794677734375 C 21.66044616699219 90.24980163574219 26.84754180908203 93.74724578857422 32.62253570556641 96.18986511230469 C 38.59992218017578 98.71807861328125 44.95121383666992 100 51.5 100 C 58.04878616333008 100 64.40007781982422 98.71807861328125 70.37745666503906 96.18986511230469 C 76.1524658203125 93.74724578857422 81.33955383300781 90.24980163574219 85.794677734375 85.794677734375 C 90.24980163574219 81.33955383300781 93.74724578857422 76.1524658203125 96.18986511230469 70.37745666503906 C 98.71807861328125 64.40007781982422 100 58.04878616333008 100 51.5 C 100 44.95121383666992 98.71807861328125 38.59992218017578 96.18986511230469 32.62253570556641 C 93.74724578857422 26.84754180908203 90.24980163574219 21.66044616699219 85.794677734375 17.205322265625 C 81.33955383300781 12.75019836425781 76.1524658203125 9.252754211425781 70.37745666503906 6.810134887695312 C 64.40007781982422 4.28192138671875 58.04878616333008 3 51.5 3 M 51.5 0 C 79.94265747070312 0 103 23.05733489990234 103 51.5 C 103 79.94265747070312 79.94265747070312 103 51.5 103 C 23.05733489990234 103 0 79.94265747070312 0 51.5 C 0 23.05733489990234 23.05733489990234 0 51.5 0 Z" stroke="none" fill="#8d60d8"/>
    </g>
    <g id="Group_969" data-name="Group 969" transform="translate(425 2863.743)" clip-path="url(#clip-path)">
      <path id="Path_4150" data-name="Path 4150" d="M17.12,88.4a9.568,9.568,0,0,1-1.306-.64,3.3,3.3,0,0,1-1.522-2.819q-.018-6.036,0-12.072a1.58,1.58,0,0,1,1.689-1.688c.273-.006.547,0,.859,0V67.217c-1.858-.65-3.71-1.131-5.416-1.925a19.943,19.943,0,0,1,5.485-37.738,20.606,20.606,0,0,1,6.141,0c.582.085,1.038.316,1.085.972.045.624-.489,1.049-1.222.949a20.514,20.514,0,0,0-5.438-.051A18.034,18.034,0,1,0,37.808,49.739c.074-.594.106-1.193.155-1.789.067-.817.421-1.213,1.053-1.173s.9.461.869,1.312A19.927,19.927,0,0,1,23.358,66.955c-.083.014-.165.035-.334.07v4.159c.356,0,.669-.01.981,0a1.533,1.533,0,0,1,1.6,1.569c.014,4.131.041,8.262-.021,12.392a3.244,3.244,0,0,1-2.234,3.014l-.58.241Zm-.883-7.088c0,1.308-.047,2.587.018,3.861a1.465,1.465,0,0,0,1.469,1.285c1.476.03,2.953.027,4.429,0A1.4,1.4,0,0,0,23.6,85.325c.087-1.33.026-2.669.026-4.011Zm7.428-8.164H16.249v2.128h7.416Zm-.006,4.166H16.24V79.3h7.419Zm-4.826-6.18h2.228V67.273H18.833Z" transform="translate(0 -22.646)" fill="#8d60d8"/>
      <path id="Path_4151" data-name="Path 4151" d="M59.766,0c1.14.342,2.29.654,3.412,1.046a1.167,1.167,0,0,1,.657.7,1.009,1.009,0,0,1-.265.894,1.373,1.373,0,0,1-1.1.146,9.827,9.827,0,0,0-3.66-.854,8.757,8.757,0,0,0-1.545,17.409,8.417,8.417,0,0,0,8.724-3.928,8.663,8.663,0,0,0-.1-9.622c-.109-.159-.231-.309-.333-.471a.959.959,0,0,1,.174-1.37.941.941,0,0,1,1.4.269A10.141,10.141,0,0,1,69,8.116,10.684,10.684,0,0,1,57.875,21.348c-.209-.013-.42,0-.634,0A15.4,15.4,0,1,1,28.817,17,15.606,15.606,0,0,1,47.924,10.31a10.678,10.678,0,0,1,1.989-5.8A10.539,10.539,0,0,1,57.1.114,2.338,2.338,0,0,0,57.454,0ZM42.287,38.1c.211-.014.531-.032.851-.055A13.452,13.452,0,0,0,55.272,21.552a1.342,1.342,0,0,0-.854-1.052,10.611,10.611,0,0,1-6.232-7.432,1.21,1.21,0,0,0-.594-.717,13.249,13.249,0,0,0-7.771-.95A13.536,13.536,0,0,0,28.8,26.206,13.628,13.628,0,0,0,42.287,38.1" transform="translate(-22.223)" fill="#8d60d8"/>
      <path id="Path_4152" data-name="Path 4152" d="M185.37,33.466a4.775,4.775,0,0,1-.2.631q-1.891,4.242-3.8,8.477a1.588,1.588,0,0,1-3.1-.331c-.169-.772-.362-1.541-.478-2.321a.672.672,0,0,0-.651-.637c-.735-.132-1.467-.284-2.2-.434-.929-.19-1.446-.666-1.534-1.4a1.625,1.625,0,0,1,1.178-1.766c2.825-1.266,5.647-2.541,8.479-3.792a1.581,1.581,0,0,1,2.3,1.576m-9.046,3.551.022.147c.54.111,1.078.238,1.621.33a1.783,1.783,0,0,1,1.622,1.638c.083.554.234,1.1.394,1.829l3.126-6.979-6.785,3.035" transform="translate(-143.703 -26.29)" fill="#8d60d8"/>
      <path id="Path_4153" data-name="Path 4153" d="M83.215,118.335v4.818c.381,0,.738-.019,1.091,0a1,1,0,0,1,1.042.989.972.972,0,0,1-1.09.924q-7.026.01-14.052,0c-.678,0-1.06-.359-1.068-.932s.37-.936,1.037-.982c.276-.019.554,0,.883,0v-4.826c-.251-.032-.505-.049-.752-.1a1.549,1.549,0,0,1-1.261-1.5c-.029-1.368-.036-2.738,0-4.105.026-.995.746-1.577,1.877-1.58q4.652-.009,9.3,0c1.069,0,2.139-.008,3.208,0a1.668,1.668,0,0,1,1.844,1.822c.017,1.155.01,2.31,0,3.465-.008,1.289-.492,1.813-1.777,1.952-.082.009-.164.029-.287.051m-5.1,4.761h3.1v-4.76H73.081v4.772h3.108c0-.506-.011-.973,0-1.438.02-.7.4-1.127.964-1.122s.933.432.954,1.136c.014.464,0,.928,0,1.412M73.9,113.02H71V116.3h2.9Zm6.506,3.293h2.909v-3.307H80.409ZM78.389,113H75.908v3.313h2.481Z" transform="translate(-57.2 -92.025)" fill="#8d60d8"/>
    </g>
  </g>
</svg>
