<svg xmlns="http://www.w3.org/2000/svg" xmlns:xlink="http://www.w3.org/1999/xlink" width="103" height="103" viewBox="0 0 103 103">
  <defs>
    <clipPath id="clip-path">
      <rect id="Rectangle_207" data-name="Rectangle 207" width="66.359" height="66.366" fill="#8d60d8"/>
    </clipPath>
  </defs>
  <g id="Group_982" data-name="Group 982" transform="translate(-1365 -2844)">
    <g id="Path_4128" data-name="Path 4128" transform="translate(1365 2844)" fill="none">
      <path d="M51.5,0A51.5,51.5,0,1,1,0,51.5,51.5,51.5,0,0,1,51.5,0Z" stroke="none"/>
      <path d="M 51.5 3 C 44.95121383666992 3 38.59992218017578 4.28192138671875 32.62253570556641 6.810134887695312 C 26.84754180908203 9.252754211425781 21.66044616699219 12.75019836425781 17.205322265625 17.205322265625 C 12.75019836425781 21.66044616699219 9.252754211425781 26.84754180908203 6.810134887695312 32.62253570556641 C 4.28192138671875 38.59992218017578 3 44.95121383666992 3 51.5 C 3 58.04878616333008 4.28192138671875 64.40007781982422 6.810134887695312 70.37745666503906 C 9.252754211425781 76.1524658203125 12.75019836425781 81.33955383300781 17.205322265625 85.794677734375 C 21.66044616699219 90.24980163574219 26.84754180908203 93.74724578857422 32.62253570556641 96.18986511230469 C 38.59992218017578 98.71807861328125 44.95121383666992 100 51.5 100 C 58.04878616333008 100 64.40007781982422 98.71807861328125 70.37745666503906 96.18986511230469 C 76.1524658203125 93.74724578857422 81.33955383300781 90.24980163574219 85.794677734375 85.794677734375 C 90.24980163574219 81.33955383300781 93.74724578857422 76.1524658203125 96.18986511230469 70.37745666503906 C 98.71807861328125 64.40007781982422 100 58.04878616333008 100 51.5 C 100 44.95121383666992 98.71807861328125 38.59992218017578 96.18986511230469 32.62253570556641 C 93.74724578857422 26.84754180908203 90.24980163574219 21.66044616699219 85.794677734375 17.205322265625 C 81.33955383300781 12.75019836425781 76.1524658203125 9.252754211425781 70.37745666503906 6.810134887695312 C 64.40007781982422 4.28192138671875 58.04878616333008 3 51.5 3 M 51.5 0 C 79.94265747070312 0 103 23.05733489990234 103 51.5 C 103 79.94265747070312 79.94265747070312 103 51.5 103 C 23.05733489990234 103 0 79.94265747070312 0 51.5 C 0 23.05733489990234 23.05733489990234 0 51.5 0 Z" stroke="none" fill="#8d60d8"/>
    </g>
    <g id="Group_933" data-name="Group 933" transform="translate(1383 2862)" clip-path="url(#clip-path)">
      <path id="Path_4130" data-name="Path 4130" d="M66.359,73.862a2.406,2.406,0,0,1-2.182.79c-3.173-.031-6.346-.013-9.516-.013v5.7h1.916c1.9,0,3.8-.01,5.7,0,1.084.008,1.786.862,1.356,1.719a2.552,2.552,0,0,1-1.044.834c-.18.1-.465.034-.7.034q-28.706,0-57.412,0a3.688,3.688,0,0,1-.96-.089,1.256,1.256,0,0,1-.007-2.408,3.028,3.028,0,0,1,.83-.089c2.417-.006,4.833,0,7.338,0v-5.7h-.611q-4.665,0-9.331,0c-1.282,0-1.741-.44-1.728-1.7a41.064,41.064,0,0,1,.117-4.655A8.883,8.883,0,0,1,7.04,60.643c1.4-.344,2.8-.675,4.19-1.009.016-.112.026-.175.035-.238a1.8,1.8,0,0,0-.86-1.919A7.039,7.039,0,0,1,7.354,52a58.366,58.366,0,0,1,.076-7.953c.316-3.534,3.761-6.534,7.309-6.736a8.99,8.99,0,0,1,6.777,1.928c.243.211.475.436.725.666,2.022-5.054,5.639-8.014,11.167-7.92,5.3.09,8.759,3.019,10.706,7.923A8.2,8.2,0,0,1,47.352,37.8c4.845-1.545,9.872.356,11.4,5.315a4.3,4.3,0,0,1,.256,1.261c-.023,2.843.056,5.7-.176,8.524a6.261,6.261,0,0,1-2.879,4.58,1.844,1.844,0,0,0-.8,2.16c1.311.317,2.653.627,3.987.967a8.935,8.935,0,0,1,7.113,7.552c.009.05.072.09.109.135ZM30.585,77.106l.089.093-.032-.153Q29.8,73.7,28.95,70.35c-.406-1.6-.818-3.2-1.238-4.846l-7.072,1.71c.158.175.226.257.3.331q4.671,4.67,9.345,9.337a2.469,2.469,0,0,0,.3.223M24.48,46.27a37.856,37.856,0,0,0,.038,5.067,8.224,8.224,0,0,0,6.1,7.132,8.436,8.436,0,0,0,9.037-2.443c2.694-2.786,2.411-6.272,2.293-9.757a6.555,6.555,0,0,1-6.217-3.247,17.55,17.55,0,0,1-5.361,2.617,19.346,19.346,0,0,1-5.9.632m5.441,34.047L18.155,68.554a9.359,9.359,0,0,0-3.39,4.631c-.8,2.332-.4,4.734-.517,7.132ZM48.261,68.594l-11.716,11.7H52.086c0-1.536.062-3.029-.013-4.514a9.222,9.222,0,0,0-3.812-7.185m-6.29-24.937a8.781,8.781,0,1,0-17.548-.026A14.85,14.85,0,0,0,32.3,42.108a15.6,15.6,0,0,0,4.45-3.59,1.3,1.3,0,1,1,1.908,1.727c-.3.356-.612.7-.911,1.048a4.094,4.094,0,0,0,4.226,2.366M21.9,48.318A13.088,13.088,0,0,1,16.122,46.9a.739.739,0,0,0-.587-.013A13.2,13.2,0,0,1,9.8,48.326c.06,1.324.039,2.62.2,3.893A4.867,4.867,0,0,0,11.673,55.2a6.159,6.159,0,0,0,5.383,1.357,5.016,5.016,0,0,0,4.411-3.818,27.641,27.641,0,0,0,.432-4.418m22.786,0a25.82,25.82,0,0,0,.045,3.7,5.865,5.865,0,0,0,1.044,2.444c1.531,2.145,4.132,2.551,6.641,1.959a5.2,5.2,0,0,0,3.492-2.839c.873-1.681.527-3.48.606-5.264A13.03,13.03,0,0,1,50.856,46.9a.738.738,0,0,0-.586-.016,13.021,13.021,0,0,1-5.584,1.436M12.262,72.034a4.212,4.212,0,0,0,.677-4.7,3,3,0,0,1-.117-.436L11.61,62.219c-1.361.322-2.663.614-3.956.94a6.775,6.775,0,0,0-3.18,1.757c-2.036,2.011-1.97,4.542-1.84,7.117ZM54.756,62.2c-.635,2.459-1.252,4.832-1.854,7.208a.883.883,0,0,0,.053.554c.331.695.694,1.374,1.039,2.047h9.759c0-.965.042-1.892-.008-2.815a6.254,6.254,0,0,0-4.56-5.867c-1.436-.443-2.915-.747-4.43-1.127M29.882,60.987a19.367,19.367,0,0,0,.212,3.255c.905,3.807,1.917,7.589,2.892,11.379.049.19.125.372.234.691,1.065-4.157,2.137-8.145,3.079-12.164a14.2,14.2,0,0,0,.034-3.133,11.755,11.755,0,0,1-6.451-.029m-8.1-15.264a5.359,5.359,0,0,0-3.049-5.193,6.31,6.31,0,0,0-6.57.428,5.288,5.288,0,0,0-2.292,4.765,9.425,9.425,0,0,0,4.844-1.388,1.857,1.857,0,0,1,2.214.008,9.438,9.438,0,0,0,4.854,1.38m34.722,0a5.311,5.311,0,0,0-2.623-4.971,6.32,6.32,0,0,0-6.863.119A5.275,5.275,0,0,0,44.6,45.722a9.423,9.423,0,0,0,4.831-1.375,1.859,1.859,0,0,1,2.214-.014A9.436,9.436,0,0,0,56.5,45.724M35.742,76.9l9.746-9.735-6.825-1.643L35.742,76.9m7.433-21.236a22.468,22.468,0,0,1-1.671,2.15c-.682.706-1.509,1.271-2.259,1.913a.664.664,0,0,0-.217.418c-.026.505-.01,1.013-.01,1.63,2.216-1.306,4.689-1.453,6.988-2.19A8.393,8.393,0,0,0,46,58.7c-.026-.236-.037-.546-.185-.685-.87-.818-1.778-1.6-2.639-2.357m-19.944-.042c-.9.8-1.785,1.58-2.657,2.367a.6.6,0,0,0-.206.354c-.025.422-.01.846-.01,1.256,2.36.71,4.8.9,6.994,2.172,0-.6.026-1.093-.013-1.581a.755.755,0,0,0-.285-.508,11.671,11.671,0,0,1-3.822-4.06M15.547,67.269c.83-.616,2.366-6.627,2.169-8.1H13.824c.063,2.764,1.239,5.33,1.723,8.1m33.034-8.1a8.445,8.445,0,0,0,.087,1.57c.446,1.882.937,3.754,1.447,5.62a5.4,5.4,0,0,0,.62,1.066c.59-2.314,1.142-4.391,1.639-6.483a11.879,11.879,0,0,0,.164-1.774Zm-1.517,5.754-.72-2.729-4.788,1.175c0,.051,0,.1,0,.153l5.5,1.4M24.831,63.507c-.007-.046-.013-.093-.02-.139l-4.8-1.171-.7,2.721,5.519-1.411" transform="translate(0 -16.589)" fill="#8d60d8"/>
      <path id="Path_4131" data-name="Path 4131" d="M67.775,0a1.6,1.6,0,0,1,1.047,1.752c-.034,1.638,0,3.278-.014,4.917a1.288,1.288,0,0,1-1.683,1.381,1.214,1.214,0,0,1-.894-1.214c-.021-1.854-.054-3.711.029-5.562C66.281.84,66.74.424,67,0Z" transform="translate(-34.334)" fill="#8d60d8"/>
      <path id="Path_4132" data-name="Path 4132" d="M93.687,12.295a5.362,5.362,0,0,1-.608,1.069q-2.446,2.5-4.941,4.945a1.293,1.293,0,1,1-1.82-1.824Q88.772,14,91.262,11.541a1.17,1.17,0,0,1,1.467-.307,5,5,0,0,1,.958,1.06" transform="translate(-44.524 -5.749)" fill="#8d60d8"/>
      <path id="Path_4133" data-name="Path 4133" d="M43.841,17.359c.026,1.206-.992,1.851-1.851,1.4a2.427,2.427,0,0,1-.554-.44c-1.454-1.446-2.912-2.889-4.345-4.356a2.339,2.339,0,0,1-.548-.915,1.1,1.1,0,0,1,.526-1.277,1.162,1.162,0,0,1,1.339-.04,2.673,2.673,0,0,1,.5.409c1.454,1.446,2.914,2.888,4.347,4.355a4.824,4.824,0,0,1,.589.867" transform="translate(-18.924 -5.982)" fill="#8d60d8"/>
      <path id="Path_4134" data-name="Path 4134" d="M68.824,22.177a1.291,1.291,0,1,1-2.582.025,1.292,1.292,0,0,1,2.582-.025" transform="translate(-34.352 -10.856)" fill="#8d60d8"/>
      <path id="Path_4135" data-name="Path 4135" d="M63.589,125.582l.032.153-.09-.093.058-.06" transform="translate(-32.946 -65.125)" fill="#8d60d8"/>
    </g>
  </g>
</svg>
