<svg id="Group_126" data-name="Group 126" xmlns="http://www.w3.org/2000/svg" xmlns:xlink="http://www.w3.org/1999/xlink" width="45.154" height="45.154" viewBox="0 0 45.154 45.154">
  <defs>
    <clipPath id="clip-path">
      <rect id="Rectangle_96" data-name="Rectangle 96" width="45.154" height="45.154" fill="none"/>
    </clipPath>
  </defs>
  <g id="Group_125" data-name="Group 125" transform="translate(0 0)" clip-path="url(#clip-path)">
    <path id="Path_4" data-name="Path 4" d="M21.256,11.492c3.179,0,3.555.013,4.812.07a6.576,6.576,0,0,1,2.211.41,3.717,3.717,0,0,1,1.371.891,3.67,3.67,0,0,1,.889,1.37,6.562,6.562,0,0,1,.411,2.211c.057,1.256.071,1.632.071,4.813s-.014,3.557-.071,4.812a6.562,6.562,0,0,1-.411,2.211,3.661,3.661,0,0,1-.889,1.37,3.717,3.717,0,0,1-1.371.891,6.576,6.576,0,0,1-2.211.41c-1.257.057-1.633.07-4.812.07s-3.558-.013-4.813-.07a6.576,6.576,0,0,1-2.211-.41,3.713,3.713,0,0,1-1.37-.891,3.663,3.663,0,0,1-.89-1.37,6.583,6.583,0,0,1-.412-2.211c-.056-1.256-.067-1.632-.067-4.812s.011-3.558.067-4.813a6.583,6.583,0,0,1,.412-2.211,3.673,3.673,0,0,1,.89-1.37,3.713,3.713,0,0,1,1.37-.891,6.576,6.576,0,0,1,2.211-.41c1.256-.057,1.632-.07,4.813-.07m0-2.146c-3.236,0-3.641.014-4.91.072a8.744,8.744,0,0,0-2.891.554,6.088,6.088,0,0,0-3.483,3.483,8.713,8.713,0,0,0-.554,2.89c-.057,1.27-.071,1.677-.071,4.911s.014,3.64.071,4.91a8.727,8.727,0,0,0,.554,2.891,6.09,6.09,0,0,0,3.483,3.482,8.715,8.715,0,0,0,2.891.554c1.269.058,1.674.072,4.91.072s3.639-.014,4.91-.072a8.713,8.713,0,0,0,2.89-.554,6.09,6.09,0,0,0,3.483-3.482,8.753,8.753,0,0,0,.555-2.891c.056-1.27.071-1.677.071-4.91s-.015-3.641-.071-4.911a8.739,8.739,0,0,0-.555-2.89,6.088,6.088,0,0,0-3.483-3.483,8.742,8.742,0,0,0-2.89-.554c-1.271-.058-1.676-.072-4.91-.072" transform="translate(1.321 1.321)" fill="#d5d5d5"/>
    <path id="Path_5" data-name="Path 5" d="M20.538,14.423a6.115,6.115,0,1,0,6.115,6.115,6.115,6.115,0,0,0-6.115-6.115m0,10.085a3.97,3.97,0,1,1,3.969-3.97,3.97,3.97,0,0,1-3.969,3.97" transform="translate(2.039 2.039)" fill="#d5d5d5"/>
    <path id="Path_6" data-name="Path 6" d="M26.957,14.387a1.429,1.429,0,1,1-1.429-1.429,1.43,1.43,0,0,1,1.429,1.429" transform="translate(3.407 1.832)" fill="#d5d5d5"/>
  </g>
  <path id="Path_4123" data-name="Path 4123" d="M22.472,44.192h0A21.721,21.721,0,0,1,.75,22.471h0a21.721,21.721,0,0,1,43.442,0h0A21.72,21.72,0,0,1,22.472,44.192Z" transform="translate(0.106 0.106)" fill="none" stroke="#d5d5d5" stroke-width="1.5"/>
</svg>
