<svg xmlns="http://www.w3.org/2000/svg" xmlns:xlink="http://www.w3.org/1999/xlink" width="103" height="103" viewBox="0 0 103 103">
  <defs>
    <clipPath id="clip-path">
      <rect id="Rectangle_212" data-name="Rectangle 212" width="56" height="56" fill="#8d60d8"/>
    </clipPath>
  </defs>
  <g id="Group_981" data-name="Group 981" transform="translate(-879 -2844)">
    <g id="Group_949" data-name="Group 949" transform="translate(-7166 -18)">
      <g id="Path_4128" data-name="Path 4128" transform="translate(8045 2862)" fill="none">
        <path d="M51.5,0A51.5,51.5,0,1,1,0,51.5,51.5,51.5,0,0,1,51.5,0Z" stroke="none"/>
        <path d="M 51.5 3 C 44.95121383666992 3 38.59992218017578 4.28192138671875 32.62253570556641 6.810134887695312 C 26.84754180908203 9.252754211425781 21.66044616699219 12.75019836425781 17.205322265625 17.205322265625 C 12.75019836425781 21.66044616699219 9.252754211425781 26.84754180908203 6.810134887695312 32.62253570556641 C 4.28192138671875 38.59992218017578 3 44.95121383666992 3 51.5 C 3 58.04878616333008 4.28192138671875 64.40007781982422 6.810134887695312 70.37745666503906 C 9.252754211425781 76.1524658203125 12.75019836425781 81.33955383300781 17.205322265625 85.794677734375 C 21.66044616699219 90.24980163574219 26.84754180908203 93.74724578857422 32.62253570556641 96.18986511230469 C 38.59992218017578 98.71807861328125 44.95121383666992 100 51.5 100 C 58.04878616333008 100 64.40007781982422 98.71807861328125 70.37745666503906 96.18986511230469 C 76.1524658203125 93.74724578857422 81.33955383300781 90.24980163574219 85.794677734375 85.794677734375 C 90.24980163574219 81.33955383300781 93.74724578857422 76.1524658203125 96.18986511230469 70.37745666503906 C 98.71807861328125 64.40007781982422 100 58.04878616333008 100 51.5 C 100 44.95121383666992 98.71807861328125 38.59992218017578 96.18986511230469 32.62253570556641 C 93.74724578857422 26.84754180908203 90.24980163574219 21.66044616699219 85.794677734375 17.205322265625 C 81.33955383300781 12.75019836425781 76.1524658203125 9.252754211425781 70.37745666503906 6.810134887695312 C 64.40007781982422 4.28192138671875 58.04878616333008 3 51.5 3 M 51.5 0 C 79.94265747070312 0 103 23.05733489990234 103 51.5 C 103 79.94265747070312 79.94265747070312 103 51.5 103 C 23.05733489990234 103 0 79.94265747070312 0 51.5 C 0 23.05733489990234 23.05733489990234 0 51.5 0 Z" stroke="none" fill="#8d60d8"/>
      </g>
    </g>
    <g id="Group_968" data-name="Group 968" transform="translate(905 2868)">
      <g id="Group_968-2" data-name="Group 968" clip-path="url(#clip-path)">
        <path id="Path_4139" data-name="Path 4139" d="M0,44.6V7.229a1.265,1.265,0,0,0,.1-.193A3.275,3.275,0,0,1,3.5,4.449c.266,0,.532,0,.85,0a4.5,4.5,0,0,1,.006-.7A9.845,9.845,0,0,1,4.748,1.82,3.308,3.308,0,0,1,7.068,0H8.155A2.4,2.4,0,0,0,8.4.107a3.321,3.321,0,0,1,2.472,3.361c0,.309,0,.618,0,.953H19.9a4.176,4.176,0,0,1,.006-.675A9.849,9.849,0,0,1,20.3,1.821,3.308,3.308,0,0,1,22.616,0H23.7a2.4,2.4,0,0,0,.245.107,3.321,3.321,0,0,1,2.472,3.361c0,.309,0,.618,0,.953h9.025a4.175,4.175,0,0,1,.006-.675,9.848,9.848,0,0,1,.393-1.926A3.308,3.308,0,0,1,38.165,0h1.087a1.4,1.4,0,0,0,.193.095,3.324,3.324,0,0,1,2.525,3.494c0,.272,0,.543,0,.859h2.766c2.465,0,3.758,1.317,3.758,3.827q0,11.45-.007,22.9a.719.719,0,0,0,.4.739,12.972,12.972,0,0,1,6.232,7.919c.252.862.368,1.766.547,2.651v2.224c-.038.2-.083.394-.114.593a13.05,13.05,0,0,1-8.441,10.783,25.186,25.186,0,0,1-3.405.858H41.427a2.679,2.679,0,0,0-.353-.105,12.877,12.877,0,0,1-10.737-8.842.774.774,0,0,0-.87-.631c-8.617.019-17.235.01-25.853.018a3.183,3.183,0,0,1-2.574-.945A10.457,10.457,0,0,1,0,44.6M46.3,15.943H2.175v.59q0,13.538,0,27.076c0,1.2.346,1.544,1.536,1.544H29.65A13.288,13.288,0,0,1,34.232,33.42,12.667,12.667,0,0,1,46.3,30.759Zm7.19,27.635a10.875,10.875,0,1,0-10.84,11.137,11.023,11.023,0,0,0,10.84-11.137M10.873,6.684c0,.36,0,.671,0,.982a3.319,3.319,0,0,1-3.25,3.452A3.318,3.318,0,0,1,4.351,7.688c-.006-.327,0-.654,0-1.015H3.692c-1.174,0-1.517.353-1.517,1.563q0,2.418,0,4.836v.565H46.319c0-1.949.01-3.857-.005-5.764a1.06,1.06,0,0,0-1-1.175c-1.1-.044-2.2-.012-3.347-.012,0,.372.007.7,0,1.031a3.264,3.264,0,1,1-6.521-.024c-.007-.327,0-.654,0-.98h-8.9A13.707,13.707,0,0,1,26.1,9.138a3.115,3.115,0,0,1-3.493,1.921,3.291,3.291,0,0,1-2.694-3.119c-.026-.415,0-.833,0-1.256ZM8.7,5.6c0-.7.01-1.408,0-2.112a1.134,1.134,0,0,0-1.1-1.252A1.129,1.129,0,0,0,6.528,3.468q-.02,2.084,0,4.168a1.13,1.13,0,0,0,1.1,1.252A1.135,1.135,0,0,0,8.695,7.653c.014-.685,0-1.371,0-2.056m15.549-.036c0-.685.009-1.371,0-2.056a1.1,1.1,0,1,0-2.169,0q-.016,2.056,0,4.113a1.1,1.1,0,1,0,2.169,0c.011-.685,0-1.371,0-2.056M39.8,5.62c0-.7.009-1.408,0-2.112A1.1,1.1,0,1,0,37.625,3.5q-.017,2.056,0,4.113a1.1,1.1,0,1,0,2.169.008c.012-.667,0-1.334,0-2" fill="#8d60d8"/>
        <path id="Path_4140" data-name="Path 4140" d="M65.727,365.975c1.431,0,2.863-.01,4.294,0a1.106,1.106,0,0,1,1.164,1.487,1.059,1.059,0,0,1-1.056.727c-2.971.008-5.943.012-8.914,0a1.1,1.1,0,0,1-1.134-1.1,1.116,1.116,0,0,1,1.189-1.107c1.486-.015,2.971,0,4.457,0" transform="translate(-53.548 -325.271)" fill="#8d60d8"/>
        <path id="Path_4141" data-name="Path 4141" d="M64.529,188.205c-1.051,0-2.1.006-3.152,0-.789-.006-1.3-.449-1.3-1.11s.509-1.108,1.3-1.11q3.207-.009,6.413,0a1.145,1.145,0,0,1,1.3,1.11c0,.661-.509,1.1-1.3,1.11-1.087.007-2.174,0-3.261,0" transform="translate(-53.547 -165.295)" fill="#8d60d8"/>
        <path id="Path_4142" data-name="Path 4142" d="M187.6,185.976c1.105,0,2.21-.005,3.315,0a1.084,1.084,0,0,1,1.076.7.957.957,0,0,1-.243,1.164,1.524,1.524,0,0,1-.879.341c-2.192.028-4.384.022-6.576.011a1.113,1.113,0,1,1-.008-2.216c1.1-.014,2.21,0,3.315,0" transform="translate(-163.17 -165.29)" fill="#8d60d8"/>
        <path id="Path_4143" data-name="Path 4143" d="M64.612,245.988c1.051,0,2.1,0,3.152,0,.8,0,1.3.427,1.32,1.087.017.677-.506,1.132-1.328,1.134q-3.18.007-6.359,0c-.8,0-1.3-.427-1.32-1.087-.017-.677.505-1.13,1.328-1.134,1.069-.006,2.138,0,3.207,0" transform="translate(-53.545 -218.629)" fill="#8d60d8"/>
        <path id="Path_4144" data-name="Path 4144" d="M187.638,245.985c1.051,0,2.1-.006,3.152,0,.788.006,1.3.449,1.3,1.11s-.509,1.107-1.3,1.11q-3.207.009-6.414,0a1.145,1.145,0,0,1-1.3-1.11c0-.661.509-1.1,1.3-1.11,1.087-.007,2.174,0,3.261,0" transform="translate(-163.173 -218.626)" fill="#8d60d8"/>
        <path id="Path_4145" data-name="Path 4145" d="M64.531,308.205c-1.051,0-2.1.006-3.152,0-.789-.006-1.3-.447-1.3-1.108a1.144,1.144,0,0,1,1.295-1.112q3.207-.009,6.413,0c.789,0,1.3.447,1.3,1.108s-.507,1.107-1.295,1.112c-1.087.008-2.174,0-3.261,0" transform="translate(-53.547 -271.95)" fill="#8d60d8"/>
        <path id="Path_4146" data-name="Path 4146" d="M187.584,308.205c-1.069,0-2.138.006-3.207,0-.789-.006-1.3-.449-1.3-1.11s.508-1.108,1.3-1.11q3.207-.009,6.413,0c.788,0,1.3.449,1.3,1.11s-.509,1.1-1.3,1.11c-1.069.007-2.138,0-3.207,0" transform="translate(-163.173 -271.95)" fill="#8d60d8"/>
        <path id="Path_4147" data-name="Path 4147" d="M310.476,185.985c1,0,1.993-.006,2.989,0,.788.006,1.3.45,1.3,1.111s-.509,1.107-1.3,1.11q-3.044.009-6.087,0c-.788,0-1.3-.449-1.3-1.11s.509-1.1,1.3-1.11c1.033-.008,2.065,0,3.1,0" transform="translate(-272.8 -165.299)" fill="#8d60d8"/>
        <path id="Path_4148" data-name="Path 4148" d="M185.237,367.168a1.079,1.079,0,1,1-1.093-1.089,1.126,1.126,0,0,1,1.093,1.089" transform="translate(-163.173 -325.367)" fill="#8d60d8"/>
        <path id="Path_4149" data-name="Path 4149" d="M384.169,328.743c1.715,0,3.36,0,5.005,0a3.094,3.094,0,0,1,.647.044,1.091,1.091,0,0,1-.006,2.135,2.523,2.523,0,0,1-.539.042q-2.933,0-5.867,0c-1.034,0-1.413-.388-1.415-1.442q0-3,0-6c0-.037,0-.074,0-.111.013-.809.433-1.327,1.079-1.334s1.089.514,1.093,1.317c.007,1.556,0,3.111,0,4.667v.679" transform="translate(-340.459 -286.26)" fill="#8d60d8"/>
      </g>
    </g>
  </g>
</svg>
